<svg xmlns="http://www.w3.org/2000/svg" id="portfolio" width="18.143" height="15.946" viewBox="0 0 18.143 15.946">
    <defs>
        <style>
            .cls-1{fill:#757575}
        </style>
    </defs>
    <path id="Path_3718" d="M211 240h3.189v1.063H211zm0 0" class="cls-1" data-name="Path 3718" transform="translate(-203.523 -231.495)"/>
    <path id="Path_3719" d="M14.719 84.235h-2.99v.532a.531.531 0 0 1-.532.532H6.945a.531.531 0 0 1-.532-.532v-.532H3.424a1.593 1.593 0 0 1-1.513-1.09L0 77.41v11.608a1.6 1.6 0 0 0 1.595 1.595h14.953a1.6 1.6 0 0 0 1.595-1.595V77.411l-1.911 5.734a1.592 1.592 0 0 1-1.513 1.09zm0 0" class="cls-1" data-name="Path 3719" transform="translate(0 -74.667)"/>
    <path id="Path_3720" d="M36.092 0h-4.253a1.6 1.6 0 0 0-1.595 1.595v.532h-4.435l2 6.015a.531.531 0 0 0 .5.363h2.99v-.532a.531.531 0 0 1 .532-.532h4.252a.531.531 0 0 1 .532.532V8.5h2.99a.531.531 0 0 0 .5-.363l2-6.015h-4.419v-.527A1.6 1.6 0 0 0 36.092 0zm-4.784 2.126v-.531a.532.532 0 0 1 .532-.532h4.252a.532.532 0 0 1 .532.532v.532zm0 0" class="cls-1" data-name="Path 3720" transform="translate(-24.894)"/>
</svg>
